REM DIRINDEX 1\8,1\2\11,1\3\12,1\3\14,1\5\15,1\5\16,1\6\17,1\6\18,1\4\19,1\4\20,1\4\21,1\4\22,1\7\23,1\7\24,1\7\25,1\2\9\26,1\2\9\27,1\2\10\28,1\2\10\29,1\2\10\30,1\2\10\31,1\2\10\32,1\3\13\33,1\3\13\34,1\3\13\35
REM DIRNAME folder01,folder02,folder03,folder04,folder05,folder06,folder07,folder08,folder09,folder10,folder11,folder12,folder13,folder14,folder15,folder16,folder17,folder18,folder19,folder20,folder21,folder22,folder23,folder24,folder25,folder26,folder27,folder28,folder29,folder30,folder31,folder32,folder33,folder34,folder35
TITLE ""
FILE "2-37 037_UNIT3_SET6.mp3" MP3
  TRACK 01 AUDIO
    TITLE "11:cjc123_4736"
    INDEX 01 00:00:00
  TRACK 02 AUDIO
    TITLE "0:"
    INDEX 01 00:02:57
  TRACK 03 AUDIO
    TITLE "28:cjc123_4737"
    INDEX 01 00:03:27
  TRACK 04 AUDIO
    TITLE "0:"
    INDEX 01 00:04:27
  TRACK 05 AUDIO
    TITLE "29:cjc123_4738"
    INDEX 01 00:04:42
  TRACK 06 AUDIO
    TITLE "0:"
    INDEX 01 00:05:30
  TRACK 07 AUDIO
    TITLE "30:cjc123_4739"
    INDEX 01 00:05:36
  TRACK 08 AUDIO
    TITLE "0:"
    INDEX 01 00:06:37
  TRACK 09 AUDIO
    TITLE "31:cjc123_4740"
    INDEX 01 00:07:11
  TRACK 10 AUDIO
    TITLE "0:"
    INDEX 01 00:11:48
  TRACK 11 AUDIO
    TITLE "32:cjc123_4741"
    INDEX 01 00:12:24
  TRACK 12 AUDIO
    TITLE "0:"
    INDEX 01 00:17:10
  TRACK 13 AUDIO
    TITLE "28:cjc123_4742"
    INDEX 01 00:17:37
  TRACK 14 AUDIO
    TITLE "0:"
    INDEX 01 00:18:54
  TRACK 15 AUDIO
    TITLE "29:cjc123_4743"
    INDEX 01 00:18:74
  TRACK 16 AUDIO
    TITLE "0:"
    INDEX 01 00:20:16
  TRACK 17 AUDIO
    TITLE "30:cjc123_4744"
    INDEX 01 00:20:22
  TRACK 18 AUDIO
    TITLE "0:"
    INDEX 01 00:21:39
  TRACK 19 AUDIO
    TITLE "31:cjc123_4745"
    INDEX 01 00:22:17
  TRACK 20 AUDIO
    TITLE "0:"
    INDEX 01 00:26:18
  TRACK 21 AUDIO
    TITLE "32:cjc123_4746"
    INDEX 01 00:26:60
  TRACK 22 AUDIO
    TITLE "0:"
    INDEX 01 00:31:00
  TRACK 23 AUDIO
    TITLE "28:cjc123_4747"
    INDEX 01 00:31:47
  TRACK 24 AUDIO
    TITLE "0:"
    INDEX 01 00:32:60
  TRACK 25 AUDIO
    TITLE "29:cjc123_4748"
    INDEX 01 00:32:66
  TRACK 26 AUDIO
    TITLE "0:"
    INDEX 01 00:34:57
  TRACK 27 AUDIO
    TITLE "30:cjc123_4749"
    INDEX 01 00:34:65
  TRACK 28 AUDIO
    TITLE "0:"
    INDEX 01 00:36:01
  TRACK 29 AUDIO
    TITLE "31:cjc123_4750"
    INDEX 01 00:36:50
  TRACK 30 AUDIO
    TITLE "0:"
    INDEX 01 00:41:22
  TRACK 31 AUDIO
    TITLE "32:cjc123_4751"
    INDEX 01 00:41:57
  TRACK 32 AUDIO
    TITLE "0:"
    INDEX 01 00:46:21
  TRACK 33 AUDIO
    TITLE "28:cjc123_4752"
    INDEX 01 00:46:66
  TRACK 34 AUDIO
    TITLE "0:"
    INDEX 01 00:47:64
  TRACK 35 AUDIO
    TITLE "29:cjc123_4753"
    INDEX 01 00:48:02
  TRACK 36 AUDIO
    TITLE "0:"
    INDEX 01 00:48:63
  TRACK 37 AUDIO
    TITLE "30:cjc123_4754"
    INDEX 01 00:48:69
  TRACK 38 AUDIO
    TITLE "0:"
    INDEX 01 00:49:63
  TRACK 39 AUDIO
    TITLE "31:cjc123_4755"
    INDEX 01 00:50:62
  TRACK 40 AUDIO
    TITLE "0:"
    INDEX 01 00:55:42
  TRACK 41 AUDIO
    TITLE "32:cjc123_4756"
    INDEX 01 00:56:16
  TRACK 42 AUDIO
    TITLE "0:"
    INDEX 01 01:00:27
  TRACK 43 AUDIO
    TITLE "28:cjc123_4757"
    INDEX 01 01:00:64
  TRACK 44 AUDIO
    TITLE "0:"
    INDEX 01 01:01:70
  TRACK 45 AUDIO
    TITLE "29:cjc123_4758"
    INDEX 01 01:02:03
  TRACK 46 AUDIO
    TITLE "0:"
    INDEX 01 01:03:45
  TRACK 47 AUDIO
    TITLE "30:cjc123_4759"
    INDEX 01 01:03:55
  TRACK 48 AUDIO
    TITLE "0:"
    INDEX 01 01:04:54
  TRACK 49 AUDIO
    TITLE "31:cjc123_4760"
    INDEX 01 01:05:24
  TRACK 50 AUDIO
    TITLE "0:"
    INDEX 01 01:09:69
  TRACK 51 AUDIO
    TITLE "32:cjc123_4761"
    INDEX 01 01:10:30
  TRACK 52 AUDIO
    TITLE "0:"
    INDEX 01 01:16:58
  TRACK 53 AUDIO
    TITLE "28:cjc123_4762"
    INDEX 01 01:17:28
  TRACK 54 AUDIO
    TITLE "0:"
    INDEX 01 01:18:27
  TRACK 55 AUDIO
    TITLE "29:cjc123_4763"
    INDEX 01 01:18:45
  TRACK 56 AUDIO
    TITLE "0:"
    INDEX 01 01:19:64
  TRACK 57 AUDIO
    TITLE "30:cjc123_4764"
    INDEX 01 01:19:74
  TRACK 58 AUDIO
    TITLE "0:"
    INDEX 01 01:20:69
  TRACK 59 AUDIO
    TITLE "31:cjc123_4765"
    INDEX 01 01:21:57
  TRACK 60 AUDIO
    TITLE "0:"
    INDEX 01 01:27:24
  TRACK 61 AUDIO
    TITLE "32:cjc123_4766"
    INDEX 01 01:27:57
  TRACK 62 AUDIO
    TITLE "0:"
    INDEX 01 01:33:31
  TRACK 63 AUDIO
    TITLE "28:cjc123_4767"
    INDEX 01 01:33:66
  TRACK 64 AUDIO
    TITLE "0:"
    INDEX 01 01:35:06
  TRACK 65 AUDIO
    TITLE "29:cjc123_4768"
    INDEX 01 01:35:26
  TRACK 66 AUDIO
    TITLE "0:"
    INDEX 01 01:36:43
  TRACK 67 AUDIO
    TITLE "30:cjc123_4769"
    INDEX 01 01:36:54
  TRACK 68 AUDIO
    TITLE "0:"
    INDEX 01 01:37:66
  TRACK 69 AUDIO
    TITLE "31:cjc123_4770"
    INDEX 01 01:38:45
  TRACK 70 AUDIO
    TITLE "0:"
    INDEX 01 01:42:67
  TRACK 71 AUDIO
    TITLE "32:cjc123_4771"
    INDEX 01 01:43:31
  TRACK 72 AUDIO
    TITLE "0:"
    INDEX 01 01:48:30
  TRACK 73 AUDIO
    TITLE "28:cjc123_4772"
    INDEX 01 01:49:00
  TRACK 74 AUDIO
    TITLE "0:"
    INDEX 01 01:50:00
  TRACK 75 AUDIO
    TITLE "29:cjc123_4773"
    INDEX 01 01:50:15
  TRACK 76 AUDIO
    TITLE "0:"
    INDEX 01 01:51:07
  TRACK 77 AUDIO
    TITLE "30:cjc123_4774"
    INDEX 01 01:51:15
  TRACK 78 AUDIO
    TITLE "0:"
    INDEX 01 01:52:06
  TRACK 79 AUDIO
    TITLE "31:cjc123_4775"
    INDEX 01 01:53:18
  TRACK 80 AUDIO
    TITLE "0:"
    INDEX 01 01:57:00
  TRACK 81 AUDIO
    TITLE "32:cjc123_4776"
    INDEX 01 01:57:49
  TRACK 82 AUDIO
    TITLE "0:"
    INDEX 01 02:02:30
  TRACK 83 AUDIO
    TITLE "28:cjc123_4777"
    INDEX 01 02:02:67
  TRACK 84 AUDIO
    TITLE "0:"
    INDEX 01 02:03:73
  TRACK 85 AUDIO
    TITLE "29:cjc123_4778"
    INDEX 01 02:04:15
  TRACK 86 AUDIO
    TITLE "0:"
    INDEX 01 02:05:33
  TRACK 87 AUDIO
    TITLE "30:cjc123_4779"
    INDEX 01 02:05:42
  TRACK 88 AUDIO
    TITLE "0:"
    INDEX 01 02:06:42
  TRACK 89 AUDIO
    TITLE "31:cjc123_4780"
    INDEX 01 02:07:14
  TRACK 90 AUDIO
    TITLE "0:"
    INDEX 01 02:11:27
  TRACK 91 AUDIO
    TITLE "32:cjc123_4781"
    INDEX 01 02:11:70
  TRACK 92 AUDIO
    TITLE "0:"
    INDEX 01 02:17:00
  TRACK 93 AUDIO
    TITLE "28:cjc123_4782"
    INDEX 01 02:17:45
  TRACK 94 AUDIO
    TITLE "0:"
    INDEX 01 02:18:65
  TRACK 95 AUDIO
    TITLE "29:cjc123_4783"
    INDEX 01 02:19:13
  TRACK 96 AUDIO
    TITLE "0:"
    INDEX 01 02:20:60
  TRACK 97 AUDIO
    TITLE "30:cjc123_4784"
    INDEX 01 02:20:63
  TRACK 98 AUDIO
    TITLE "0:"
    INDEX 01 02:22:25
  TRACK 99 AUDIO
    TITLE "31:cjc123_4785"
    INDEX 01 02:22:72
  TRACK 100 AUDIO
    TITLE "0:"
    INDEX 01 02:26:48
  TRACK 101 AUDIO
    TITLE "32:cjc123_4786"
    INDEX 01 02:27:20
  TRACK 102 AUDIO
    TITLE "0:"
    INDEX 01 02:31:30
  TRACK 103 AUDIO
    TITLE "28:cjc123_4787"
    INDEX 01 02:32:02
  TRACK 104 AUDIO
    TITLE "0:"
    INDEX 01 02:32:61
  TRACK 105 AUDIO
    TITLE "29:cjc123_4788"
    INDEX 01 02:33:19
  TRACK 106 AUDIO
    TITLE "0:"
    INDEX 01 02:34:30
  TRACK 107 AUDIO
    TITLE "30:cjc123_4789"
    INDEX 01 02:34:40
  TRACK 108 AUDIO
    TITLE "0:"
    INDEX 01 02:35:36
  TRACK 109 AUDIO
    TITLE "31:cjc123_4790"
    INDEX 01 02:36:08
  TRACK 110 AUDIO
    TITLE "0:"
    INDEX 01 02:40:19
  TRACK 111 AUDIO
    TITLE "32:cjc123_4791"
    INDEX 01 02:40:54
  TRACK 112 AUDIO
    TITLE "0:"
    INDEX 01 02:45:42
  TRACK 113 AUDIO
    TITLE "28:cjc123_4792"
    INDEX 01 02:46:14
  TRACK 114 AUDIO
    TITLE "0:"
    INDEX 01 02:47:37
  TRACK 115 AUDIO
    TITLE "29:cjc123_4793"
    INDEX 01 02:47:56
  TRACK 116 AUDIO
    TITLE "0:"
    INDEX 01 02:48:48
  TRACK 117 AUDIO
    TITLE "30:cjc123_4794"
    INDEX 01 02:48:62
  TRACK 118 AUDIO
    TITLE "0:"
    INDEX 01 02:49:69
  TRACK 119 AUDIO
    TITLE "31:cjc123_4795"
    INDEX 01 02:50:45
  TRACK 120 AUDIO
    TITLE "0:"
    INDEX 01 02:55:03
  TRACK 121 AUDIO
    TITLE "32:cjc123_4796"
    INDEX 01 02:55:48
  TRACK 122 AUDIO
    TITLE "0:"
    INDEX 01 03:00:18
  TRACK 123 AUDIO
    TITLE "28:cjc123_4797"
    INDEX 01 03:00:65
  TRACK 124 AUDIO
    TITLE "0:"
    INDEX 01 03:02:09
  TRACK 125 AUDIO
    TITLE "29:cjc123_4798"
    INDEX 01 03:02:19
  TRACK 126 AUDIO
    TITLE "0:"
    INDEX 01 03:03:63
  TRACK 127 AUDIO
    TITLE "30:cjc123_4799"
    INDEX 01 03:03:71
  TRACK 128 AUDIO
    TITLE "0:"
    INDEX 01 03:05:03
  TRACK 129 AUDIO
    TITLE "31:cjc123_4800"
    INDEX 01 03:05:54
  TRACK 130 AUDIO
    TITLE "0:"
    INDEX 01 03:09:31
  TRACK 131 AUDIO
    TITLE "32:cjc123_4801"
    INDEX 01 03:09:60
  TRACK 132 AUDIO
    TITLE "0:"
    INDEX 01 03:13:09
  TRACK 133 AUDIO
    TITLE "28:cjc123_4802"
    INDEX 01 03:13:56
  TRACK 134 AUDIO
    TITLE "0:"
    INDEX 01 03:14:51
  TRACK 135 AUDIO
    TITLE "29:cjc123_4803"
    INDEX 01 03:14:69
  TRACK 136 AUDIO
    TITLE "0:"
    INDEX 01 03:16:13
  TRACK 137 AUDIO
    TITLE "30:cjc123_4804"
    INDEX 01 03:16:19
  TRACK 138 AUDIO
    TITLE "0:"
    INDEX 01 03:17:18
  TRACK 139 AUDIO
    TITLE "31:cjc123_4805"
    INDEX 01 03:18:12
  TRACK 140 AUDIO
    TITLE "0:"
    INDEX 01 03:22:57
  TRACK 141 AUDIO
    TITLE "32:cjc123_4806"
    INDEX 01 03:23:23
  TRACK 142 AUDIO
    TITLE "0:"
    INDEX 01 03:27:66
  TRACK 143 AUDIO
    TITLE "28:cjc123_4807"
    INDEX 01 03:28:32
  TRACK 144 AUDIO
    TITLE "0:"
    INDEX 01 03:29:69
  TRACK 145 AUDIO
    TITLE "29:cjc123_4808"
    INDEX 01 03:29:72
  TRACK 146 AUDIO
    TITLE "0:"
    INDEX 01 03:31:24
  TRACK 147 AUDIO
    TITLE "30:cjc123_4809"
    INDEX 01 03:31:32
  TRACK 148 AUDIO
    TITLE "0:"
    INDEX 01 03:32:63
  TRACK 149 AUDIO
    TITLE "31:cjc123_4810"
    INDEX 01 03:33:35
  TRACK 150 AUDIO
    TITLE "0:"
    INDEX 01 03:38:18
  TRACK 151 AUDIO
    TITLE "32:cjc123_4811"
    INDEX 01 03:38:62
  TRACK 152 AUDIO
    TITLE "0:"
    INDEX 01 03:44:33
